<svg width="192" height="48" viewBox="0 0 192 48" fill="none" xmlns="http://www.w3.org/2000/svg">
<path d="M22.4388 20.9504C22.6728 20.6664 23.0988 20.6013 23.4348 20.8025C23.6867 20.9504 23.8187 21.2168 23.8547 21.6309C23.9447 22.5658 23.3267 23.2344 22.6847 22.909C22.1807 22.6486 22.0308 21.4652 22.4388 20.9504Z" fill="white"/>
<path d="M27.5689 20.6841C27.7189 20.6841 27.923 20.7254 28.019 20.7787C28.2709 20.903 28.4329 21.2758 28.4329 21.7195C28.4329 22.2047 28.343 22.489 28.103 22.7434C27.929 22.9327 27.8629 22.9624 27.6409 22.9624C27.1129 22.9623 26.8069 22.548 26.7949 21.8143C26.7889 21.0746 27.0529 20.6841 27.5689 20.6841Z" fill="white"/>
<path fill-rule="evenodd" clip-rule="evenodd" d="M20.7247 4.57897C21.5225 4.12472 22.5055 4.12472 23.3033 4.57897L38.4408 13.1981C39.2386 13.6523 39.7301 14.4918 39.7301 15.4004V32.6386C39.7301 33.5471 39.2386 34.3866 38.4408 34.8409L23.3033 43.46C22.5055 43.9142 21.5225 43.9142 20.7247 43.46L5.58727 34.8409C4.78945 34.3866 4.29786 33.5471 4.29785 32.6386V15.4004C4.29787 14.4919 4.78937 13.6523 5.58716 13.1981L20.7247 4.57897ZM17.0093 25.6627C16.626 24.9202 15.4907 24.78 15.2551 25.5801C14.8703 26.8874 14.9239 28.3278 15.5081 29.6757C16.853 32.7788 20.5006 34.2164 23.655 32.8866C24.6662 32.4604 25.5039 31.8015 26.1313 31.0007C26.735 30.2301 25.9515 29.8972 25.1304 30.4381C25.0071 30.5194 24.8818 30.5883 24.7552 30.6417C21.6007 31.9714 18.7649 29.5731 17.42 26.4701C17.2927 26.2042 17.151 25.9371 17.0093 25.6627ZM21.3729 13.5301C21.2649 12.8734 20.5389 12.471 19.9389 12.7313C19.4889 12.9325 19.2309 13.465 19.3629 13.9325C19.5129 14.4769 19.9449 14.7551 20.5269 14.6959L20.8808 14.6604L21.3129 15.0924C21.5469 15.3232 21.829 15.6722 21.943 15.8616C22.135 16.187 22.4889 17.0687 22.489 17.2286C22.4888 17.2641 22.3628 17.3292 22.207 17.3706C21.271 17.6191 20.2569 18.2286 19.5128 18.992C18.9248 19.5955 18.7147 19.8975 18.3668 20.6134C18.1578 21.1382 17.7418 22.3747 17.7489 23.1224V23.7377C17.7489 26.0573 19.1168 27.6196 21.6609 28.2173L22.2369 28.3534C22.9012 28.4952 24.2291 28.4632 24.739 28.4303C27.0551 28.3297 28.6092 27.7616 29.6893 26.6373C30.3972 25.8977 30.7094 25.1106 30.7094 24.0632C30.7094 22.7318 30.1693 21.1696 29.2753 19.9566C29.1553 19.7909 28.8433 19.424 28.5793 19.1281L28.0991 18.6013L28.1173 17.7374C28.1473 16.4001 27.9071 15.5065 27.2531 14.536C27.0012 14.1633 26.9173 13.9917 26.9232 13.8497C26.9352 13.6189 26.7912 13.2639 26.6112 13.0686C26.2032 12.6308 25.4232 12.69 25.0631 13.1929C24.8652 13.4651 24.8351 13.9681 25.0031 14.2876C25.1831 14.6426 25.4351 14.7964 25.8971 14.8319L26.2811 14.8676L26.5151 15.2521C26.8811 15.8497 27.0551 16.4593 27.0911 17.2818L27.1272 17.9742L26.6233 17.7434C25.8492 17.3765 25.153 17.1989 24.325 17.1575L23.6111 17.116L23.4191 16.5422C23.2031 15.9032 22.9149 15.3587 22.5369 14.8498C22.2729 14.5007 21.547 13.7729 21.4629 13.7727C21.4329 13.7725 21.3909 13.6661 21.3729 13.5301Z" fill="white"/>
<path d="M186.928 30.7517V33.617L185.087 33.6843C183.25 33.7471 181.995 33.4332 181.322 32.7426C180.885 32.3032 180.667 31.6261 180.667 30.7114V21.6851H178.594V18.9544H180.667V14.8649H184.514V18.9544H186.928V21.6851H184.514V29.4334C184.514 30.0343 184.591 30.411 184.746 30.5634C184.9 30.7069 185.373 30.7786 186.164 30.7786C186.282 30.7786 186.405 30.7786 186.532 30.7786C186.669 30.7697 186.801 30.7607 186.928 30.7517Z" fill="white"/>
<path d="M176.88 18.8198V33.4825H172.938V18.8198H176.88ZM176.88 13.5332V17.0711H172.938V13.5332H176.88Z" fill="white"/>
<path d="M171.512 33.4825H166.819L163.259 27.2139L161.65 28.8685V33.4825H157.83V13.7215H161.65V24.4024L166.492 18.8871H171.307L166.11 24.4966L171.512 33.4825Z" fill="white"/>
<path d="M153.103 19.4924C154.266 20.2278 154.935 21.4923 155.108 23.2859H151.22C151.166 22.7927 151.025 22.4025 150.797 22.1156C150.37 21.5954 149.642 21.3354 148.615 21.3354C147.769 21.3354 147.164 21.4654 146.801 21.7255C146.446 21.9855 146.269 22.2904 146.269 22.6402C146.269 23.0796 146.46 23.398 146.842 23.5953C147.224 23.8016 148.574 24.1558 150.893 24.658C152.439 25.0167 153.598 25.5593 154.371 26.2857C155.135 27.0211 155.517 27.9403 155.517 29.0433C155.517 30.4962 154.967 31.6844 153.866 32.6081C152.775 33.5229 151.084 33.9802 148.792 33.9802C146.455 33.9802 144.727 33.4959 143.609 32.5274C142.5 31.5499 141.945 30.3078 141.945 28.8012H145.887C145.969 29.4828 146.146 29.967 146.419 30.254C146.901 30.7652 147.792 31.0208 149.092 31.0208C149.856 31.0208 150.461 30.9087 150.906 30.6845C151.361 30.4603 151.588 30.124 151.588 29.6756C151.588 29.2451 151.407 28.9178 151.043 28.6936C150.679 28.4694 149.329 28.0838 146.992 27.5367C145.309 27.1242 144.123 26.6085 143.432 25.9897C142.741 25.3799 142.395 24.5011 142.395 23.3532C142.395 21.999 142.931 20.8376 144.005 19.8691C145.087 18.8916 146.605 18.4028 148.56 18.4028C150.415 18.4028 151.929 18.766 153.103 19.4924Z" fill="white"/>
<path d="M140.572 29.1779C140.472 30.0478 140.013 30.9311 139.195 31.8279C137.922 33.2538 136.139 33.9668 133.848 33.9668C131.956 33.9668 130.288 33.3659 128.842 32.1642C127.396 30.9625 126.673 29.0075 126.673 26.2991C126.673 23.7612 127.323 21.8151 128.624 20.461C129.933 19.1068 131.629 18.4297 133.711 18.4297C134.948 18.4297 136.062 18.6584 137.053 19.1158C138.044 19.5731 138.863 20.2951 139.508 21.2815C140.09 22.1514 140.468 23.1603 140.641 24.3082C140.741 24.9808 140.782 25.9494 140.763 27.2139H130.588C130.642 28.6846 131.111 29.7159 131.993 30.3078C132.529 30.6755 133.175 30.8594 133.93 30.8594C134.73 30.8594 135.38 30.6352 135.88 30.1868C136.153 29.9446 136.394 29.6083 136.603 29.1779H140.572ZM136.726 24.6849C136.662 23.6715 136.349 22.9048 135.785 22.3846C135.23 21.8555 134.539 21.5909 133.711 21.5909C132.811 21.5909 132.111 21.8689 131.611 22.425C131.12 22.981 130.811 23.7343 130.683 24.6849H136.726Z" fill="white"/>
<path d="M124.605 18.8198V33.4825H120.663V18.8198H124.605ZM124.605 13.5332V17.0711H120.663V13.5332H124.605Z" fill="white"/>
<path d="M112.143 33.8726C110.916 33.8726 109.929 33.6305 109.183 33.1462C108.738 32.8592 108.256 32.357 107.737 31.6396V33.4825H103.932V13.6812H107.806V20.73C108.297 20.0484 108.838 19.5283 109.429 19.1696C110.129 18.7212 111.02 18.497 112.102 18.497C114.057 18.497 115.585 19.192 116.685 20.582C117.795 21.9721 118.349 23.7657 118.349 25.9628C118.349 28.2407 117.804 30.1285 116.713 31.6261C115.621 33.1238 114.098 33.8726 112.143 33.8726ZM114.271 26.3664C114.271 25.3261 114.135 24.4652 113.862 23.7836C113.343 22.4922 112.389 21.8465 110.997 21.8465C109.588 21.8465 108.619 22.4788 108.092 23.7433C107.819 24.4159 107.683 25.2858 107.683 26.3529C107.683 27.6085 107.965 28.6488 108.528 29.4738C109.092 30.2989 109.952 30.7114 111.106 30.7114C112.107 30.7114 112.884 30.3123 113.439 29.5142C113.994 28.716 114.271 27.6668 114.271 26.3664Z" fill="white"/>
<path d="M101.782 29.1779C101.682 30.0478 101.223 30.9311 100.404 31.8279C99.1311 33.2538 97.3488 33.9668 95.0572 33.9668C93.1658 33.9668 91.4972 33.3659 90.0513 32.1642C88.6054 30.9625 87.8825 29.0075 87.8825 26.2991C87.8825 23.7612 88.5327 21.8151 89.8331 20.461C91.1425 19.1068 92.8384 18.4297 94.9208 18.4297C96.1576 18.4297 97.2715 18.6584 98.2627 19.1158C99.2539 19.5731 100.072 20.2951 100.718 21.2815C101.3 22.1514 101.677 23.1603 101.85 24.3082C101.95 24.9808 101.991 25.9494 101.973 27.2139H91.7972C91.8518 28.6846 92.3201 29.7159 93.2022 30.3078C93.7387 30.6755 94.3843 30.8594 95.1391 30.8594C95.9393 30.8594 96.5895 30.6352 97.0896 30.1868C97.3624 29.9446 97.6034 29.6083 97.8126 29.1779H101.782ZM97.9353 24.6849C97.8717 23.6715 97.5579 22.9048 96.9941 22.3846C96.4394 21.8555 95.7483 21.5909 94.9208 21.5909C94.0206 21.5909 93.3204 21.8689 92.8203 22.425C92.3292 22.981 92.02 23.7343 91.8927 24.6849H97.9353Z" fill="white"/>
<path d="M86.7693 29.1779C86.6692 30.0478 86.21 30.9311 85.3916 31.8279C84.1185 33.2538 82.3362 33.9668 80.0446 33.9668C78.1532 33.9668 76.4846 33.3659 75.0387 32.1642C73.5928 30.9625 72.8699 29.0075 72.8699 26.2991C72.8699 23.7612 73.5201 21.8151 74.8205 20.461C76.1299 19.1068 77.8258 18.4297 79.9082 18.4297C81.145 18.4297 82.2589 18.6584 83.2501 19.1158C84.2413 19.5731 85.0597 20.2951 85.7053 21.2815C86.2873 22.1514 86.6647 23.1603 86.8375 24.3082C86.9375 24.9808 86.9784 25.9494 86.9602 27.2139H76.7846C76.8392 28.6846 77.3075 29.7159 78.1896 30.3078C78.7261 30.6755 79.3717 30.8594 80.1265 30.8594C80.9267 30.8594 81.5769 30.6352 82.077 30.1868C82.3498 29.9446 82.5908 29.6083 82.8 29.1779H86.7693ZM82.9227 24.6849C82.8591 23.6715 82.5453 22.9048 81.9816 22.3846C81.4269 21.8555 80.7358 21.5909 79.9082 21.5909C79.008 21.5909 78.3078 21.8689 77.8077 22.425C77.3166 22.981 77.0074 23.7343 76.8801 24.6849H82.9227Z" fill="white"/>
<path d="M71.1701 22.3577C69.6061 22.3577 68.5558 22.8599 68.0193 23.8643C67.7192 24.4293 67.5691 25.2992 67.5691 26.474V33.4825H63.6544V18.8198H67.3645V21.3757C67.9647 20.3982 68.4876 19.7301 68.9331 19.3714C69.6606 18.7705 70.6063 18.4701 71.7703 18.4701C71.8431 18.4701 71.9022 18.4746 71.9476 18.4835C72.0022 18.4835 72.1159 18.488 72.2886 18.497V22.425C72.0431 22.3981 71.8249 22.3801 71.6339 22.3712C71.4429 22.3622 71.2884 22.3577 71.1701 22.3577Z" fill="white"/>
<path d="M61.7227 17.1652H51.6426V21.7255H60.4678V25.1692H51.6426V33.4825H47.4688V13.6812H61.7227V17.1652Z" fill="white"/>
</svg>
