<svg width="128" height="32" viewBox="0 0 128 32" fill="none" xmlns="http://www.w3.org/2000/svg">
<path d="M14.9592 13.9676C15.1152 13.7782 15.3992 13.7349 15.6232 13.869C15.7912 13.9676 15.8791 14.1452 15.9031 14.4213C15.9631 15.0445 15.5511 15.4902 15.1231 15.2733C14.7871 15.0997 14.6872 14.3108 14.9592 13.9676Z" fill="url(#paint0_linear_234_458)"/>
<path d="M18.3793 13.7901C18.4793 13.7901 18.6153 13.8176 18.6793 13.8531C18.8473 13.936 18.9552 14.1845 18.9553 14.4803C18.9553 14.8038 18.8953 14.9933 18.7353 15.1629C18.6194 15.2891 18.5752 15.3089 18.4273 15.3089C18.0753 15.3089 17.8713 15.0327 17.8633 14.5435C17.8593 14.0504 18.0353 13.7901 18.3793 13.7901Z" fill="url(#paint1_linear_234_458)"/>
<path fill-rule="evenodd" clip-rule="evenodd" d="M13.8165 3.0533C14.3484 2.75046 15.0037 2.75046 15.5356 3.0533L25.6272 8.79937C26.1591 9.10221 26.4867 9.66188 26.4867 10.2676V21.7597C26.4867 22.3654 26.1591 22.9251 25.6272 23.2279L15.5356 28.974C15.0037 29.2768 14.3484 29.2768 13.8165 28.974L3.72485 23.2279C3.19297 22.9251 2.86524 22.3654 2.86523 21.7597V10.2676C2.86525 9.66189 3.19291 9.10221 3.72478 8.79937L13.8165 3.0533ZM11.3396 17.1091C11.084 16.6141 10.3271 16.5206 10.1701 17.0541C9.91355 17.9256 9.94926 18.8859 10.3387 19.7845C11.2353 21.8532 13.667 22.8116 15.77 21.9251C16.4441 21.6409 17.0026 21.2016 17.4208 20.6678C17.8233 20.1541 17.301 19.9321 16.7536 20.2927C16.6714 20.3469 16.5879 20.3928 16.5035 20.4284C14.4005 21.3149 12.5099 19.7161 11.6133 17.6474C11.5285 17.4701 11.434 17.2921 11.3396 17.1091ZM14.2486 9.02074C14.1766 8.5829 13.6926 8.31467 13.2926 8.48818C12.9926 8.6223 12.8206 8.97731 12.9086 9.28895C13.0086 9.65189 13.2966 9.83736 13.6846 9.79792L13.9206 9.77426L14.2086 10.0623C14.3646 10.2161 14.5527 10.4488 14.6287 10.575C14.7567 10.792 14.9926 11.3798 14.9927 11.4864C14.9926 11.5101 14.9086 11.5534 14.8047 11.581C14.1806 11.7467 13.5046 12.1531 13.0086 12.662C12.6166 13.0643 12.4765 13.2656 12.2445 13.7429C12.1052 14.0928 11.8278 14.9171 11.8326 15.4156V15.8258C11.8326 17.3722 12.7445 18.4137 14.4406 18.8122L14.8246 18.9029C15.2675 18.9974 16.1528 18.9761 16.4927 18.9542C18.0367 18.8871 19.0728 18.5084 19.7928 17.7589C20.2648 17.2658 20.473 16.7411 20.473 16.0428C20.4729 15.1552 20.1129 14.1137 19.5169 13.305C19.4369 13.1946 19.2288 12.95 19.0528 12.7527L18.7328 12.4015L18.7449 11.8256C18.7648 10.9341 18.6048 10.3383 18.1687 9.69134C18.0008 9.44287 17.9448 9.32843 17.9488 9.23376C17.9568 9.07992 17.8608 8.84325 17.7408 8.71307C17.4688 8.42116 16.9488 8.46064 16.7088 8.79592C16.5768 8.97739 16.5568 9.31269 16.6687 9.52571C16.7887 9.76237 16.9567 9.86489 17.2647 9.88857L17.5207 9.91237L17.6767 10.1687C17.9207 10.5671 18.0367 10.9735 18.0607 11.5218L18.0848 11.9834L17.7488 11.8296C17.2328 11.585 16.7687 11.4666 16.2167 11.439L15.7407 11.4113L15.6127 11.0288C15.4687 10.6028 15.2766 10.2398 15.0246 9.9005C14.8486 9.66776 14.3647 9.18255 14.3086 9.18244C14.2886 9.18235 14.2606 9.1114 14.2486 9.02074Z" fill="url(#paint2_linear_234_458)"/>
<path d="M124.618 20.5025V22.4126L123.391 22.4575C122.166 22.4993 121.33 22.2901 120.881 21.8297C120.59 21.5368 120.444 21.0854 120.444 20.4756V14.458H119.062V12.6375H120.444V9.91127H123.009V12.6375H124.618V14.458H123.009V19.6236C123.009 20.0242 123.06 20.2753 123.163 20.3769C123.266 20.4726 123.582 20.5204 124.109 20.5204C124.188 20.5204 124.27 20.5204 124.355 20.5204C124.446 20.5144 124.534 20.5084 124.618 20.5025Z" fill="#0A0A0A"/>
<path d="M117.92 12.5479V22.323H115.292V12.5479H117.92ZM117.92 9.02344V11.382H115.292V9.02344H117.92Z" fill="#0A0A0A"/>
<path d="M114.341 22.323H111.213L108.839 18.1439L107.766 19.2469V22.323H105.22V9.14899H107.766V16.2696L110.994 12.5927H114.204L110.74 16.3323L114.341 22.323Z" fill="#0A0A0A"/>
<path d="M102.068 12.9963C102.844 13.4865 103.29 14.3295 103.405 15.5252H100.813C100.777 15.1964 100.683 14.9363 100.531 14.745C100.246 14.3983 99.7613 14.2249 99.0763 14.2249C98.5125 14.2249 98.1093 14.3116 97.8668 14.4849C97.6304 14.6583 97.5122 14.8616 97.5122 15.0948C97.5122 15.3877 97.6395 15.6 97.8941 15.7315C98.1487 15.869 99.049 16.1052 100.595 16.44C101.625 16.6791 102.398 17.0408 102.914 17.5251C103.423 18.0153 103.678 18.6282 103.678 19.3635C103.678 20.3321 103.311 21.1242 102.577 21.74C101.85 22.3499 100.722 22.6548 99.1945 22.6548C97.6365 22.6548 96.4846 22.3319 95.739 21.6862C94.9994 21.0346 94.6296 20.2065 94.6296 19.2021H97.2576C97.3121 19.6565 97.4304 19.9793 97.6122 20.1706C97.9335 20.5114 98.5276 20.6818 99.3945 20.6818C99.9038 20.6818 100.307 20.6071 100.604 20.4576C100.907 20.3082 101.059 20.084 101.059 19.785C101.059 19.4981 100.937 19.2798 100.695 19.1304C100.452 18.9809 99.5522 18.7238 97.9941 18.3591C96.8726 18.0841 96.0815 17.7403 95.6208 17.3278C95.16 16.9212 94.9297 16.3353 94.9297 15.5701C94.9297 14.6673 95.2873 13.8931 96.0027 13.2474C96.7241 12.5957 97.7365 12.2698 99.0399 12.2698C100.277 12.2698 101.286 12.512 102.068 12.9963Z" fill="#0A0A0A"/>
<path d="M93.7146 19.4532C93.6479 20.0331 93.3418 20.622 92.7962 21.2199C91.9475 22.1705 90.7593 22.6458 89.2316 22.6458C87.9706 22.6458 86.8582 22.2452 85.8943 21.4441C84.9303 20.643 84.4484 19.3396 84.4484 17.5341C84.4484 15.8421 84.8819 14.5447 85.7488 13.642C86.6217 12.7392 87.7524 12.2878 89.1406 12.2878C89.9651 12.2878 90.7077 12.4402 91.3685 12.7452C92.0293 13.0501 92.5749 13.5313 93.0053 14.189C93.3933 14.7689 93.6449 15.4415 93.7601 16.2068C93.8268 16.6552 93.8541 17.3009 93.8419 18.1439H87.0582C87.0946 19.1244 87.4068 19.8119 87.9948 20.2065C88.3525 20.4516 88.7829 20.5742 89.2861 20.5742C89.8196 20.5742 90.2531 20.4247 90.5865 20.1258C90.7683 19.9644 90.929 19.7402 91.0684 19.4532H93.7146ZM91.1503 16.4579C91.1078 15.7823 90.8987 15.2711 90.5228 14.9244C90.153 14.5716 89.6923 14.3953 89.1406 14.3953C88.5405 14.3953 88.0737 14.5806 87.7402 14.9513C87.4129 15.322 87.2067 15.8242 87.1219 16.4579H91.1503Z" fill="#0A0A0A"/>
<path d="M83.0697 12.5479V22.323H80.4417V12.5479H83.0697ZM83.0697 9.02344V11.382H80.4417V9.02344H83.0697Z" fill="#0A0A0A"/>
<path d="M74.7618 22.583C73.9434 22.583 73.2856 22.4216 72.7885 22.0988C72.4914 21.9075 72.1701 21.5726 71.8246 21.0944V22.323H69.2875V9.12209H71.8701V13.8213C72.1974 13.3669 72.5581 13.0202 72.9522 12.781C73.419 12.4821 74.0131 12.3326 74.7345 12.3326C76.0379 12.3326 77.0564 12.796 77.7899 13.7227C78.5295 14.6494 78.8993 15.8451 78.8993 17.3099C78.8993 18.8284 78.5356 20.0869 77.8081 21.0854C77.0806 22.0838 76.0652 22.583 74.7618 22.583ZM76.1803 17.5789C76.1803 16.8854 76.0894 16.3114 75.9075 15.857C75.562 14.9961 74.9255 14.5657 73.9979 14.5657C73.0583 14.5657 72.4126 14.9872 72.061 15.8301C71.8791 16.2785 71.7882 16.8585 71.7882 17.5699C71.7882 18.4069 71.9761 19.1005 72.352 19.6505C72.7279 20.2005 73.3008 20.4756 74.0707 20.4756C74.7375 20.4756 75.2558 20.2095 75.6256 19.6774C75.9954 19.1453 76.1803 18.4458 76.1803 17.5789Z" fill="#0A0A0A"/>
<path d="M67.8542 19.4532C67.7876 20.0331 67.4814 20.622 66.9358 21.2199C66.0871 22.1705 64.8989 22.6458 63.3712 22.6458C62.1102 22.6458 60.9978 22.2452 60.0339 21.4441C59.07 20.643 58.588 19.3396 58.588 17.5341C58.588 15.8421 59.0215 14.5447 59.8884 13.642C60.7613 12.7392 61.892 12.2878 63.2802 12.2878C64.1047 12.2878 64.8473 12.4402 65.5081 12.7452C66.1689 13.0501 66.7145 13.5313 67.145 14.189C67.5329 14.7689 67.7845 15.4415 67.8997 16.2068C67.9664 16.6552 67.9937 17.3009 67.9816 18.1439H61.1978C61.2342 19.1244 61.5464 19.8119 62.1345 20.2065C62.4921 20.4516 62.9226 20.5742 63.4257 20.5742C63.9592 20.5742 64.3927 20.4247 64.7261 20.1258C64.908 19.9644 65.0686 19.7402 65.208 19.4532H67.8542ZM65.2899 16.4579C65.2475 15.7823 65.0383 15.2711 64.6624 14.9244C64.2926 14.5716 63.8319 14.3953 63.2802 14.3953C62.6801 14.3953 62.2133 14.5806 61.8798 14.9513C61.5525 15.322 61.3464 15.8242 61.2615 16.4579H65.2899Z" fill="#0A0A0A"/>
<path d="M57.8458 19.4532C57.7792 20.0331 57.473 20.622 56.9274 21.2199C56.0787 22.1705 54.8905 22.6458 53.3628 22.6458C52.1018 22.6458 50.9894 22.2452 50.0255 21.4441C49.0616 20.643 48.5796 19.3396 48.5796 17.5341C48.5796 15.8421 49.0131 14.5447 49.88 13.642C50.753 12.7392 51.8836 12.2878 53.2718 12.2878C54.0963 12.2878 54.8389 12.4402 55.4997 12.7452C56.1605 13.0501 56.7061 13.5313 57.1366 14.189C57.5245 14.7689 57.7761 15.4415 57.8913 16.2068C57.958 16.6552 57.9853 17.3009 57.9732 18.1439H51.1894C51.2258 19.1244 51.538 19.8119 52.1261 20.2065C52.4837 20.4516 52.9142 20.5742 53.4173 20.5742C53.9508 20.5742 54.3843 20.4247 54.7177 20.1258C54.8996 19.9644 55.0602 19.7402 55.1997 19.4532H57.8458ZM55.2815 16.4579C55.2391 15.7823 55.0299 15.2711 54.654 14.9244C54.2842 14.5716 53.8235 14.3953 53.2718 14.3953C52.6717 14.3953 52.2049 14.5806 51.8714 14.9513C51.5441 15.322 51.338 15.8242 51.2531 16.4579H55.2815Z" fill="#0A0A0A"/>
<path d="M47.4464 14.9064C46.4037 14.9064 45.7035 15.2412 45.3458 15.9109C45.1458 16.2875 45.0458 16.8674 45.0458 17.6506V22.323H42.4359V12.5479H44.9094V14.2518C45.3095 13.6001 45.6581 13.1547 45.9551 12.9155C46.4401 12.515 47.0706 12.3147 47.8465 12.3147C47.895 12.3147 47.9344 12.3177 47.9648 12.3237C48.0011 12.3237 48.0769 12.3266 48.1921 12.3326V14.9513C48.0284 14.9333 47.8829 14.9214 47.7556 14.9154C47.6283 14.9094 47.5252 14.9064 47.4464 14.9064Z" fill="#0A0A0A"/>
<path d="M41.1482 11.4448H34.4281V14.4849H40.3116V16.7807H34.4281V22.323H31.6455V9.12209H41.1482V11.4448Z" fill="#0A0A0A"/>
<defs>
<linearGradient id="paint0_linear_234_458" x1="7.5" y1="5.00098" x2="26" y2="33.001" gradientUnits="userSpaceOnUse">
<stop stop-color="#122DB5"/>
<stop offset="1" stop-color="#4F75E0"/>
</linearGradient>
<linearGradient id="paint1_linear_234_458" x1="7.5" y1="5.00098" x2="26" y2="33.001" gradientUnits="userSpaceOnUse">
<stop stop-color="#122DB5"/>
<stop offset="1" stop-color="#4F75E0"/>
</linearGradient>
<linearGradient id="paint2_linear_234_458" x1="7.5" y1="5.00098" x2="26" y2="33.001" gradientUnits="userSpaceOnUse">
<stop stop-color="#122DB5"/>
<stop offset="1" stop-color="#4F75E0"/>
</linearGradient>
</defs>
</svg>
